<svg width="57" height="72" viewBox="0 0 57 72" fill="none" xmlns="http://www.w3.org/2000/svg">
<path d="M34.5 18V53H25.9V25.55H14.3V38.2C14.3 41.4667 13.8167 44.2167 12.85 46.45C11.9167 48.65 10.4333 50.3 8.4 51.4C6.36667 52.4667 3.73333 53 0.5 53V45.85C1.33333 45.85 2.06667 45.6833 2.7 45.35C3.36667 45.0167 3.91667 44.55 4.35 43.95C4.81667 43.3167 5.16667 42.55 5.4 41.65C5.63333 40.75 5.75 39.7667 5.75 38.7V18H34.5Z" fill="#363F55"/>
<path d="M25.7 18H34.45V53H25.7V18ZM46.35 18H56.25L42.05 34.4L57 53H46.75L32 34.65L46.35 18Z" fill="#363F55"/>
</svg>
