<svg width="79" height="38" viewBox="0 0 79 38" fill="none" xmlns="http://www.w3.org/2000/svg">
<path d="M20.05 23.35V16.85H37.75C37.9167 19.65 37.6333 22.2667 36.9 24.7C36.1667 27.1333 35.0333 29.2833 33.5 31.15C31.9667 33.0167 30.05 34.4833 27.75 35.55C25.45 36.5833 22.8167 37.1 19.85 37.1C17.05 37.1 14.4833 36.6667 12.15 35.8C9.81667 34.9 7.8 33.6333 6.1 32C4.4 30.3333 3.06667 28.3667 2.1 26.1C1.16667 23.8 0.7 21.2667 0.7 18.5C0.7 15.7333 1.18333 13.2333 2.15 11C3.11667 8.73333 4.48333 6.8 6.25 5.2C8.01667 3.6 10.0833 2.36666 12.45 1.5C14.8167 0.633332 17.3833 0.199999 20.15 0.199999C22.6167 0.199999 24.8333 0.549998 26.8 1.25C28.7667 1.95 30.5 2.93333 32 4.2C33.5333 5.43333 34.85 6.86667 35.95 8.5L28.45 12.4C27.65 11 26.5667 9.85 25.2 8.95C23.8667 8.01667 22.1833 7.55 20.15 7.55C18.1833 7.55 16.4 7.98333 14.8 8.85C13.2 9.71667 11.9167 10.9667 10.95 12.6C10.0167 14.2 9.55 16.1667 9.55 18.5C9.55 20.8 10 22.8 10.9 24.5C11.8333 26.1667 13.0833 27.4667 14.65 28.4C16.25 29.3 18.0833 29.75 20.15 29.75C21.4167 29.75 22.5667 29.6 23.6 29.3C24.6333 28.9667 25.5167 28.5167 26.25 27.95C26.9833 27.35 27.6 26.6667 28.1 25.9C28.6333 25.1 29.05 24.25 29.35 23.35H20.05ZM60.7727 23.35V16.85H78.4727C78.6393 19.65 78.356 22.2667 77.6227 24.7C76.8893 27.1333 75.756 29.2833 74.2227 31.15C72.6893 33.0167 70.7727 34.4833 68.4727 35.55C66.1727 36.5833 63.5393 37.1 60.5727 37.1C57.7727 37.1 55.206 36.6667 52.8727 35.8C50.5393 34.9 48.5227 33.6333 46.8227 32C45.1227 30.3333 43.7893 28.3667 42.8227 26.1C41.8893 23.8 41.4227 21.2667 41.4227 18.5C41.4227 15.7333 41.906 13.2333 42.8727 11C43.8393 8.73333 45.206 6.8 46.9727 5.2C48.7393 3.6 50.806 2.36666 53.1727 1.5C55.5393 0.633332 58.106 0.199999 60.8727 0.199999C63.3393 0.199999 65.556 0.549998 67.5227 1.25C69.4893 1.95 71.2227 2.93333 72.7227 4.2C74.256 5.43333 75.5727 6.86667 76.6727 8.5L69.1727 12.4C68.3727 11 67.2893 9.85 65.9227 8.95C64.5893 8.01667 62.906 7.55 60.8727 7.55C58.906 7.55 57.1227 7.98333 55.5227 8.85C53.9227 9.71667 52.6393 10.9667 51.6727 12.6C50.7393 14.2 50.2727 16.1667 50.2727 18.5C50.2727 20.8 50.7227 22.8 51.6227 24.5C52.556 26.1667 53.806 27.4667 55.3727 28.4C56.9727 29.3 58.806 29.75 60.8727 29.75C62.1393 29.75 63.2893 29.6 64.3227 29.3C65.356 28.9667 66.2393 28.5167 66.9727 27.95C67.706 27.35 68.3227 26.6667 68.8227 25.9C69.356 25.1 69.7727 24.25 70.0727 23.35H60.7727Z" fill="#363F55"/>
</svg>
